<svg width="459" height="226" viewBox="0 0 459 226" fill="none" xmlns="http://www.w3.org/2000/svg">
<path d="M326.066 225.292C326.066 222.992 327.866 221.192 330.166 221.192V215.192C327.866 215.192 326.066 213.392 326.066 211.092C326.066 208.792 327.866 206.992 330.166 206.992V200.992C327.866 200.992 326.066 199.192 326.066 196.892C326.066 194.592 327.866 192.792 330.166 192.792V186.792C327.866 186.792 326.066 184.992 326.066 182.692C326.066 180.392 327.866 178.592 330.166 178.592V172.592C327.866 172.592 326.066 170.792 326.066 168.492C326.066 166.192 327.866 164.392 330.166 164.392V158.392C327.866 158.392 326.066 156.592 326.066 154.292C326.066 151.992 327.866 150.192 330.166 150.192V144.192C327.866 144.192 326.066 142.392 326.066 140.092C326.066 137.792 327.866 135.992 330.166 135.992V129.992C327.866 129.992 326.066 128.192 326.066 125.892C326.066 123.592 327.866 121.792 330.166 121.792V115.792C327.866 115.792 326.066 113.992 326.066 111.692C326.066 109.392 327.866 107.592 330.166 107.592V101.592C327.866 101.592 326.066 99.7924 326.066 97.4924C326.066 95.1924 327.866 93.3924 330.166 93.3924V87.3924C327.866 87.3924 326.066 85.5924 326.066 83.2924C326.066 80.9924 327.866 79.1924 330.166 79.1924V73.1924C327.866 73.1924 326.066 71.3924 326.066 69.0924C326.066 66.7924 327.866 64.9924 330.166 64.9924V58.9924C327.866 58.9924 326.066 57.1924 326.066 54.8924C326.066 52.5924 327.866 50.7924 330.166 50.7924V44.7924C327.866 44.7924 326.066 42.9924 326.066 40.6924C326.066 38.3924 327.866 36.5924 330.166 36.5924V30.5924C327.866 30.5924 326.066 28.7924 326.066 26.4924C326.066 24.1924 327.866 22.3924 330.166 22.3924V16.3924C327.866 16.3924 326.066 14.5924 326.066 12.2924C326.066 9.99241 327.866 8.19241 330.166 8.19241V2.19241C327.866 2.19241 326.066 0.392407 326.066 -1.90759H24.866C24.866 -1.90759 19.266 -1.90759 19.266 -1.80759C19.266 -1.60759 19.266 -1.30759 19.266 -1.10759C19.266 8.49241 11.466 16.1924 1.96597 16.1924C1.86597 16.1924 1.86597 16.1924 1.76597 16.1924C1.46597 16.2924 1.16597 16.2924 0.865967 16.2924V22.2924C3.16597 22.2924 4.96597 24.0924 4.96597 26.3924C4.96597 28.6924 3.16597 30.4924 0.865967 30.4924V36.4924C3.16597 36.4924 4.96597 38.2924 4.96597 40.5924C4.96597 42.8924 3.16597 44.6924 0.865967 44.6924V50.6924C3.16597 50.6924 4.96597 52.4924 4.96597 54.7924C4.96597 57.0924 3.16597 58.8924 0.865967 58.8924V64.8924C3.16597 64.8924 4.96597 66.6924 4.96597 68.9924C4.96597 71.2924 3.16597 73.0924 0.865967 73.0924V79.0924C3.16597 79.0924 4.96597 80.8924 4.96597 83.1924C4.96597 85.4924 3.16597 87.2924 0.865967 87.2924V93.2924C3.16597 93.2924 4.96597 95.0924 4.96597 97.3924C4.96597 99.6924 3.16597 101.492 0.865967 101.492V107.492C3.16597 107.492 4.96597 109.292 4.96597 111.592C4.96597 113.892 3.16597 115.692 0.865967 115.692V121.692C3.16597 121.692 4.96597 123.492 4.96597 125.792C4.96597 128.092 3.16597 129.892 0.865967 129.892V135.892C3.16597 135.892 4.96597 137.692 4.96597 139.992C4.96597 142.292 3.16597 144.092 0.865967 144.092V150.092C3.16597 150.092 4.96597 151.892 4.96597 154.192C4.96597 156.492 3.16597 158.292 0.865967 158.292V164.292C3.16597 164.292 4.96597 166.092 4.96597 168.392C4.96597 170.692 3.16597 172.492 0.865967 172.492V178.492C3.16597 178.492 4.96597 180.292 4.96597 182.592C4.96597 184.892 3.16597 186.692 0.865967 186.692V192.692C3.16597 192.692 4.96597 194.492 4.96597 196.792C4.96597 199.092 3.16597 200.892 0.865967 200.892V206.892C1.86597 206.892 2.86597 207.292 3.56597 207.892C12.366 208.692 19.366 216.092 19.366 225.192H22.866H326.066V225.292Z" fill="#F4EBE2"/>
<path d="M440.566 225.292C440.566 224.692 440.666 224.092 440.966 223.592C441.266 214.292 448.866 206.792 458.266 206.792C458.466 206.792 458.766 206.792 458.966 206.792V200.992C456.666 200.992 454.866 199.192 454.866 196.892C454.866 194.592 456.666 192.792 458.966 192.792V186.792C456.666 186.792 454.866 184.992 454.866 182.692C454.866 180.392 456.666 178.592 458.966 178.592V172.592C456.666 172.592 454.866 170.792 454.866 168.492C454.866 166.192 456.666 164.392 458.966 164.392V158.392C456.666 158.392 454.866 156.592 454.866 154.292C454.866 151.992 456.666 150.192 458.966 150.192V144.192C456.666 144.192 454.866 142.392 454.866 140.092C454.866 137.792 456.666 135.992 458.966 135.992V129.992C456.666 129.992 454.866 128.192 454.866 125.892C454.866 123.592 456.666 121.792 458.966 121.792V115.792C456.666 115.792 454.866 113.992 454.866 111.692C454.866 109.392 456.666 107.592 458.966 107.592V101.592C456.666 101.592 454.866 99.7924 454.866 97.4924C454.866 95.1924 456.666 93.3924 458.966 93.3924V87.3924C456.666 87.3924 454.866 85.5924 454.866 83.2924C454.866 80.9924 456.666 79.1924 458.966 79.1924V73.1924C456.666 73.1924 454.866 71.3924 454.866 69.0924C454.866 66.7924 456.666 64.9924 458.966 64.9924V58.9924C456.666 58.9924 454.866 57.1924 454.866 54.8924C454.866 52.5924 456.666 50.7924 458.966 50.7924V44.7924C456.666 44.7924 454.866 42.9924 454.866 40.6924C454.866 38.3924 456.666 36.5924 458.966 36.5924V30.5924C456.666 30.5924 454.866 28.7924 454.866 26.4924C454.866 24.1924 456.666 22.3924 458.966 22.3924V16.3924C458.466 16.3924 458.066 16.2924 457.666 16.1924C448.066 16.1924 440.366 7.6924 440.366 -1.8076C440.366 -2.0076 334.266 -1.8076 334.266 -1.8076C334.266 0.492404 332.466 2.2924 330.166 2.2924V8.2924C332.466 8.2924 334.266 10.0924 334.266 12.3924C334.266 14.6924 332.466 16.4924 330.166 16.4924V22.4924C332.466 22.4924 334.266 24.2924 334.266 26.5924C334.266 28.8924 332.466 30.6924 330.166 30.6924V36.6924C332.466 36.6924 334.266 38.4924 334.266 40.7924C334.266 43.0924 332.466 44.8924 330.166 44.8924V50.8924C332.466 50.8924 334.266 52.6924 334.266 54.9924C334.266 57.2924 332.466 59.0924 330.166 59.0924V65.0924C332.466 65.0924 334.266 66.8924 334.266 69.1924C334.266 71.4924 332.466 73.2924 330.166 73.2924V79.2924C332.466 79.2924 334.266 81.0924 334.266 83.3924C334.266 85.6924 332.466 87.4924 330.166 87.4924V93.4924C332.466 93.4924 334.266 95.2924 334.266 97.5924C334.266 99.8924 332.466 101.692 330.166 101.692V107.692C332.466 107.692 334.266 109.492 334.266 111.792C334.266 114.092 332.466 115.892 330.166 115.892V121.892C332.466 121.892 334.266 123.692 334.266 125.992C334.266 128.292 332.466 130.092 330.166 130.092V136.092C332.466 136.092 334.266 137.892 334.266 140.192C334.266 142.492 332.466 144.292 330.166 144.292V150.292C332.466 150.292 334.266 152.092 334.266 154.392C334.266 156.692 332.466 158.492 330.166 158.492V164.492C332.466 164.492 334.266 166.292 334.266 168.592C334.266 170.892 332.466 172.692 330.166 172.692V178.692C332.466 178.692 334.266 180.492 334.266 182.792C334.266 185.092 332.466 186.892 330.166 186.892V192.892C332.466 192.892 334.266 194.692 334.266 196.992C334.266 199.292 332.466 201.092 330.166 201.092V207.092C332.466 207.092 334.266 208.892 334.266 211.192C334.266 213.492 332.466 215.292 330.166 215.292V221.292C332.466 221.292 334.266 223.092 334.266 225.392H440.566V225.292Z" fill="#F4EBE2"/>
<path d="M423.266 195.693H355.866V197.592H423.266V195.693Z" fill="#333333"/>
<path d="M423.266 191.992H355.866V193.892H423.266V191.992Z" fill="#333333"/>
<path d="M413.866 184.392H355.866V188.192H413.866V184.392Z" fill="#333333"/>
<path d="M413.866 178.792H355.866V180.692H413.866V178.792Z" fill="#333333"/>
<path d="M413.866 173.193H355.866V175.092H413.866V173.193Z" fill="#333333"/>
<path d="M413.866 165.592H355.866V169.392H413.866V165.592Z" fill="#333333"/>
<path d="M413.866 156.193H355.866V163.693H413.866V156.193Z" fill="#333333"/>
<path d="M413.866 152.492H355.866V154.392H413.866V152.492Z" fill="#333333"/>
<path d="M413.866 148.693H355.866V150.592H413.866V148.693Z" fill="#333333"/>
<path d="M413.866 139.292H355.866V143.092H413.866V139.292Z" fill="#333333"/>
<path d="M413.866 133.592H355.866V137.392H413.866V133.592Z" fill="#333333"/>
<path d="M413.866 126.092H355.866V127.992H413.866V126.092Z" fill="#333333"/>
<path d="M413.866 122.392H355.866V124.292H413.866V122.392Z" fill="#333333"/>
<path d="M413.866 112.892H355.866V120.392H413.866V112.892Z" fill="#333333"/>
<path d="M423.266 109.193H355.866V111.092H423.266V109.193Z" fill="#333333"/>
<path d="M423.266 105.392H355.866V107.292H423.266V105.392Z" fill="#333333"/>
<path d="M413.866 101.693H355.866V103.592H413.866V101.693Z" fill="#333333"/>
<path d="M413.866 94.0924H355.866V95.9924H413.866V94.0924Z" fill="#333333"/>
<path d="M413.866 88.4924H355.866V90.3924H413.866V88.4924Z" fill="#333333"/>
<path d="M413.866 82.7925H355.866V84.6925H413.866V82.7925Z" fill="#333333"/>
<path d="M413.866 71.5924H355.866V77.1924H413.866V71.5924Z" fill="#333333"/>
<path d="M413.866 67.7925H355.866V69.6925H413.866V67.7925Z" fill="#333333"/>
<path d="M413.866 60.2925H355.866V64.0925H413.866V60.2925Z" fill="#333333"/>
<path d="M413.866 52.6925H355.866V56.4925H413.866V52.6925Z" fill="#333333"/>
<path d="M413.866 47.0924H355.866V50.8924H413.866V47.0924Z" fill="#333333"/>
<path d="M413.866 39.5924H355.866V43.3924H413.866V39.5924Z" fill="#333333"/>
<path d="M413.866 33.8925H355.866V37.6925H413.866V33.8925Z" fill="#333333"/>
<path d="M413.866 26.3925H355.866V30.1925H413.866V26.3925Z" fill="#333333"/>
<path d="M423.266 22.5924H355.866V24.4924H423.266V22.5924Z" fill="#333333"/>
<path d="M423.266 18.8925H355.866V20.7925H423.266V18.8925Z" fill="#333333"/>
<path d="M431.866 209.892C430.866 210.692 429.166 211.092 426.766 211.092C426.366 211.092 425.666 211.092 424.566 210.992C423.066 210.892 422.166 210.692 421.166 210.292C419.766 209.692 419.066 208.592 419.066 206.492C419.066 205.592 419.166 204.892 419.466 204.392C419.866 203.492 420.766 202.792 421.566 202.492C421.966 202.292 422.466 202.192 423.066 202.092C423.666 201.992 424.166 201.992 424.566 201.892C424.966 201.892 425.466 201.892 426.066 201.892C426.866 201.892 427.566 201.892 428.166 201.992C430.066 202.092 431.366 202.692 432.166 203.292C432.566 203.592 432.866 203.992 433.066 204.392C433.466 205.192 433.566 205.792 433.566 206.492C433.366 207.992 432.866 209.092 431.866 209.892ZM422.266 208.792C422.966 209.092 423.666 209.092 424.466 209.092C424.766 209.092 425.166 209.092 425.666 209.092C426.166 209.092 426.566 209.092 426.866 209.092C429.366 209.092 430.866 208.592 431.266 207.592C431.366 207.292 431.466 206.992 431.466 206.492C431.466 206.192 431.466 205.892 431.366 205.592C431.166 204.392 430.066 203.792 427.866 203.692C426.866 203.692 426.166 203.592 425.666 203.592C423.166 203.592 421.666 203.992 421.166 204.692C420.866 204.992 420.766 205.592 420.766 206.192C420.766 206.392 420.766 206.692 420.866 207.092C421.066 207.992 421.566 208.592 422.266 208.792Z" fill="#333333"/>
<path d="M431.666 183.592C431.466 183.592 431.266 183.592 430.966 183.592C430.666 183.592 430.466 183.592 430.366 183.592H421.466C421.866 183.992 422.366 184.492 422.866 185.092C423.366 185.692 423.566 186.092 423.566 186.492C423.566 186.992 423.166 187.392 422.666 187.392C422.366 187.392 422.066 187.192 421.666 186.792L419.866 184.692C419.666 184.492 419.366 184.092 419.166 183.892C419.066 183.692 418.866 183.392 418.866 182.992C418.866 182.192 419.266 181.792 419.966 181.792C420.066 181.792 420.266 181.792 420.366 181.792H430.066C430.166 181.792 430.366 181.792 430.566 181.792C430.866 181.792 431.066 181.792 431.266 181.792C432.366 181.792 432.966 182.092 432.966 182.692C433.266 183.192 432.766 183.592 431.666 183.592Z" fill="#333333"/>
<path d="M424.766 166.692C425.866 167.292 426.466 168.292 427.166 169.392C428.266 170.892 429.266 172.492 431.166 172.492V168.092C431.166 167.992 431.166 167.492 431.166 167.292C431.166 166.292 431.766 166.092 432.066 166.092C432.666 166.092 433.066 166.492 433.066 167.292C433.066 167.592 432.966 168.092 432.966 168.292V172.192C432.966 172.292 432.966 172.692 432.966 172.892C432.966 173.892 432.566 174.192 431.566 174.192C430.166 174.192 428.966 173.792 427.966 173.092C427.066 172.292 426.466 171.692 425.766 170.492C425.266 169.792 425.066 169.392 424.566 168.892C423.966 168.292 423.466 167.992 422.766 167.992C421.666 167.992 420.766 168.792 420.766 170.492C420.766 172.092 421.666 173.092 421.666 173.692C421.666 174.292 421.166 174.492 420.766 174.492C420.266 174.492 419.766 174.092 419.466 173.192C419.166 172.292 418.966 171.392 418.966 170.592C418.966 168.892 419.766 166.292 422.966 166.292C423.666 166.192 424.266 166.392 424.766 166.692Z" fill="#333333"/>
<path d="M428.766 154.592C427.266 154.592 426.466 155.692 426.166 157.392C426.166 157.492 426.166 157.592 426.166 157.892C426.166 158.392 426.066 158.692 425.866 158.892C425.666 159.092 425.466 159.192 425.266 159.192C424.966 159.192 424.666 159.092 424.366 158.792L421.166 155.692V159.792C421.166 159.892 421.166 160.292 421.166 160.392C421.166 161.192 420.866 161.592 420.266 161.592C419.666 161.592 419.366 161.192 419.366 160.292C419.366 160.092 419.366 159.392 419.366 159.292V155.092C419.366 154.392 419.166 153.292 420.566 153.292C421.166 153.292 421.866 153.792 422.466 154.392C422.766 154.692 423.066 154.992 423.466 155.492C423.866 155.892 424.266 156.192 424.666 156.492C424.766 155.392 425.166 154.592 426.066 153.892C426.866 153.292 427.866 152.892 428.966 152.892C430.266 152.892 431.366 153.392 432.166 154.292C432.966 155.292 433.366 156.392 433.366 157.792C433.366 158.292 433.266 158.992 433.166 159.992C432.966 160.992 432.566 161.692 431.966 161.692C431.566 161.692 431.066 161.392 431.066 160.792C431.066 160.592 431.166 160.192 431.366 159.692C431.566 159.192 431.666 158.592 431.666 157.992C431.466 155.892 430.266 154.592 428.766 154.592Z" fill="#333333"/>
<path d="M430.866 143.292C430.466 143.292 430.266 143.192 430.066 143.192V146.892C430.066 147.392 430.166 147.992 429.666 148.392C429.466 148.592 429.166 148.692 428.866 148.692C428.366 148.692 427.366 148.292 426.466 147.892L424.266 146.892L421.566 145.592L420.766 145.292L419.866 144.892C419.466 144.692 418.966 144.192 418.966 143.792C418.966 143.292 419.366 142.892 419.866 142.892C420.166 142.892 420.666 142.992 421.166 143.292C421.666 143.592 422.066 143.792 422.366 143.992L424.666 145.092L425.766 145.592C426.766 145.992 427.466 146.292 428.066 146.692V143.292C427.966 143.292 427.666 143.292 427.366 143.292C427.066 143.292 426.766 143.292 426.566 143.292C425.566 143.292 425.066 142.992 425.066 142.292C425.066 141.592 425.566 141.292 426.566 141.292C426.766 141.292 426.966 141.292 427.366 141.292C427.666 141.292 427.866 141.292 428.066 141.292C428.066 141.192 428.066 140.792 428.066 140.592C428.066 139.792 428.366 139.492 428.966 139.492C429.466 139.492 429.866 139.792 429.866 140.692C429.866 140.792 429.866 141.192 429.866 141.392C429.966 141.392 430.266 141.392 430.566 141.392C430.966 141.392 431.166 141.292 431.366 141.292C432.366 141.292 432.966 141.592 432.966 142.292C432.966 142.992 432.466 143.292 431.466 143.292C431.466 143.292 431.166 143.292 430.866 143.292Z" fill="#333333"/>
<path d="M421.166 128.493C421.166 128.593 421.166 128.893 421.166 128.993V132.592L423.766 132.792C423.766 130.992 424.166 129.592 424.766 128.792C425.766 127.592 427.066 127.193 428.066 127.193C428.666 127.193 429.166 127.193 430.166 127.693C430.666 127.893 431.066 128.193 431.366 128.493C432.066 129.193 432.766 130.492 433.066 132.092C433.166 132.892 433.266 133.393 433.266 133.693C433.266 134.593 432.966 134.993 432.266 134.993C431.866 134.993 431.566 134.793 431.466 134.493C431.366 134.293 431.366 133.893 431.366 133.393C431.366 132.693 431.266 132.093 431.066 131.493C430.866 130.893 430.566 130.292 430.066 129.792C429.566 129.292 428.966 129.092 428.366 129.092C426.566 129.092 425.666 130.493 425.566 132.393C425.566 132.593 425.666 133.292 425.666 133.592C425.666 134.492 425.366 134.792 424.466 134.792C424.266 134.792 423.966 134.793 423.666 134.693C423.266 134.593 423.066 134.592 422.966 134.592C421.366 134.592 420.366 134.493 419.966 134.393C419.566 134.293 419.366 133.892 419.366 133.292C419.366 133.192 419.366 132.793 419.366 132.693V129.393C419.366 129.293 419.366 128.893 419.366 128.693C419.366 127.793 419.666 127.393 420.266 127.393C420.866 127.293 421.166 127.693 421.166 128.493Z" fill="#333333"/>
<path d="M420.066 115.692C420.266 115.692 420.466 115.792 420.666 115.892C420.866 115.992 421.066 116.192 421.366 116.592C421.666 116.892 421.866 117.092 421.966 117.192C422.266 117.392 423.066 118.092 424.366 119.092C424.266 118.692 424.266 118.292 424.266 117.992C424.266 116.492 424.866 115.192 425.766 114.492C426.666 113.792 427.766 113.392 428.866 113.392C430.166 113.392 431.266 113.792 432.066 114.692C432.866 115.592 433.266 116.692 433.266 117.992C433.266 119.292 432.866 120.392 432.066 121.292C431.266 122.192 430.166 122.592 428.666 122.592C426.566 122.592 424.266 121.592 421.866 119.592C420.966 118.892 420.266 118.192 419.666 117.692C419.266 117.292 419.066 116.992 419.066 116.692C419.166 116.092 419.466 115.692 420.066 115.692ZM427.066 115.592C426.166 116.192 426.066 116.992 426.066 117.892C426.066 118.692 426.266 119.292 426.666 119.792C427.166 120.392 427.866 120.692 428.866 120.692C430.466 120.692 431.566 119.592 431.566 117.992C431.566 116.292 430.566 115.192 428.766 115.192C427.966 115.192 427.466 115.292 427.066 115.592Z" fill="#333333"/>
<path d="M432.066 100.092C429.666 100.092 427.466 99.5925 425.666 98.4925C425.266 98.2925 424.566 97.7925 423.566 96.8925C422.566 96.0925 421.766 95.4925 421.066 95.2925V100.092C421.066 100.292 421.066 100.792 421.066 101.092C421.066 101.892 420.766 102.293 420.166 102.293C419.566 102.293 419.166 101.793 419.166 100.893C419.166 100.593 419.266 99.9925 419.266 99.7925V95.3925C419.266 95.2925 419.266 94.7925 419.266 94.5925C419.266 93.6925 419.666 93.1925 420.466 93.1925C421.066 93.1925 421.666 93.3925 422.466 93.7925C423.166 94.1925 423.966 94.7925 424.866 95.3925C425.666 96.0925 426.266 96.4925 426.466 96.5925C428.066 97.5925 429.966 98.0925 432.166 98.0925C432.866 98.0925 433.266 98.3925 433.266 98.9925C433.166 99.6925 432.866 100.092 432.066 100.092Z" fill="#333333"/>
<path d="M432.166 87.9925C431.366 88.8925 430.466 89.2925 429.466 89.2925C428.766 89.2925 428.166 89.0925 427.466 88.6925C426.766 88.2925 426.066 87.5925 425.366 86.5925C425.166 87.0925 424.666 87.5925 424.166 87.9925C423.566 88.3925 422.966 88.5925 422.166 88.5925C421.166 88.5925 420.466 88.1925 419.866 87.3925C419.266 86.5925 419.066 85.6925 419.066 84.5925C419.066 83.5925 419.366 82.6925 419.866 81.8925C420.366 81.1925 421.166 80.7925 422.166 80.7925C424.166 80.7925 424.866 82.0925 425.466 82.7925C425.766 82.1925 426.366 81.5925 427.066 81.0925C427.766 80.4925 428.566 80.2925 429.466 80.2925C430.466 80.2925 431.366 80.6925 432.166 81.4925C432.966 82.2925 433.366 83.3925 433.366 84.7925C433.266 86.0925 432.966 87.1925 432.166 87.9925ZM429.466 81.9925C428.566 81.9925 427.666 82.6925 426.966 83.6925C426.666 84.0925 426.366 84.4925 426.366 84.7925C426.366 84.9925 426.466 85.2925 426.766 85.5925C426.966 85.8925 427.166 86.0925 427.266 86.2925C427.866 86.9925 428.666 87.4925 429.466 87.4925C430.666 87.4925 431.466 86.3925 431.466 84.6925C431.466 83.0925 430.666 81.9925 429.466 81.9925ZM421.266 86.1925C421.466 86.6925 421.866 86.8925 422.366 86.8925C422.866 86.8925 423.366 86.5925 423.766 85.9925C424.166 85.3925 424.366 84.9925 424.366 84.7925C424.366 84.3925 424.166 83.8925 423.766 83.3925C423.366 82.8925 422.866 82.5925 422.366 82.5925C421.566 82.5925 420.966 83.4925 420.966 84.5925C420.866 85.1925 420.966 85.6925 421.266 86.1925Z" fill="#333333"/>
<path d="M432.266 73.8924C432.066 73.8924 431.866 73.7924 431.666 73.6924C431.466 73.5924 431.266 73.3924 431.066 73.0924L430.566 72.4924C429.866 71.8924 429.066 71.1924 428.066 70.4924C428.066 70.6924 428.066 71.2924 428.066 71.4924C428.066 72.5924 427.866 73.4924 427.366 74.1924C426.566 75.3924 425.166 76.0924 423.666 76.0924C422.366 76.0924 421.266 75.6924 420.366 74.7924C419.466 73.8924 418.966 72.7924 418.966 71.4924C418.966 70.2924 419.366 69.1924 420.166 68.2924C420.966 67.3924 422.066 66.9924 423.366 66.9924C424.266 66.9924 425.166 67.1924 426.066 67.4924C427.066 67.8924 427.966 68.2924 428.766 68.8924C430.366 69.9924 431.566 70.9924 432.466 71.8924C432.866 72.2924 433.066 72.6924 433.066 72.8924C433.166 73.4924 432.866 73.8924 432.266 73.8924ZM421.766 73.5924C422.366 74.0924 423.066 74.3924 423.766 74.3924C424.766 74.3924 426.266 73.8924 426.266 71.6924C426.266 71.3924 426.266 71.0924 426.166 70.7924C426.066 69.5924 424.966 68.8924 423.666 68.8924C422.766 68.8924 422.066 69.1924 421.566 69.6924C421.066 70.1924 420.866 70.8924 420.866 71.5924C420.866 72.3924 421.166 73.0924 421.766 73.5924Z" fill="#333333"/>
<path d="M431.666 58.7924C431.466 58.7924 431.266 58.7924 430.966 58.7924C430.666 58.7924 430.466 58.7924 430.366 58.7924H421.466C421.866 59.1924 422.366 59.6924 422.866 60.2924C423.366 60.8924 423.566 61.2924 423.566 61.6924C423.566 62.1924 423.166 62.5924 422.666 62.5924C422.366 62.5924 422.066 62.3924 421.666 61.9924L419.866 59.8924C419.666 59.6924 419.366 59.2924 419.166 59.0924C419.066 58.8924 418.866 58.5924 418.866 58.1924C418.866 57.3924 419.266 56.9924 419.966 56.9924C420.066 56.9924 420.266 56.9924 420.366 56.9924H430.066C430.166 56.9924 430.366 56.9924 430.566 56.9924C430.866 56.9924 431.066 56.9924 431.266 56.9924C432.366 56.9924 432.966 57.2924 432.966 57.8924C433.266 58.3924 432.766 58.7924 431.666 58.7924Z" fill="#333333"/>
<path d="M431.666 45.6925C431.466 45.6925 431.266 45.6925 430.966 45.6925C430.666 45.6925 430.466 45.6925 430.366 45.6925H421.466C421.866 46.0925 422.366 46.5925 422.866 47.1925C423.366 47.7925 423.566 48.1925 423.566 48.5925C423.566 49.0925 423.166 49.4925 422.666 49.4925C422.366 49.4925 422.066 49.2925 421.666 48.8925L419.866 46.7925C419.666 46.5925 419.366 46.1925 419.166 45.9925C419.066 45.7925 418.866 45.4925 418.866 45.0925C418.866 44.2925 419.266 43.8925 419.966 43.8925C420.066 43.8925 420.266 43.8925 420.366 43.8925H430.066C430.166 43.8925 430.366 43.8925 430.566 43.8925C430.866 43.8925 431.066 43.8925 431.266 43.8925C432.366 43.8925 432.966 44.1925 432.966 44.7925C433.266 45.3925 432.766 45.6925 431.666 45.6925Z" fill="#333333"/>
<path d="M431.666 32.5925C431.466 32.5925 431.266 32.5925 430.966 32.5925C430.666 32.5925 430.466 32.5925 430.366 32.5925H421.466C421.866 32.9925 422.366 33.4925 422.866 34.0925C423.366 34.6925 423.566 35.0925 423.566 35.4925C423.566 35.9925 423.166 36.3925 422.666 36.3925C422.366 36.3925 422.066 36.1925 421.666 35.7925L419.866 33.6925C419.666 33.4925 419.366 33.0925 419.166 32.8925C419.066 32.6925 418.866 32.3925 418.866 31.9925C418.866 31.1925 419.266 30.7925 419.966 30.7925C420.066 30.7925 420.266 30.7925 420.366 30.7925H430.066C430.166 30.7925 430.366 30.7925 430.566 30.7925C430.866 30.7925 431.066 30.7925 431.266 30.7925C432.366 30.7925 432.966 31.0925 432.966 31.6925C433.266 32.2925 432.766 32.5925 431.666 32.5925Z" fill="#333333"/>
</svg>
