<svg width="105" height="53" viewBox="0 0 105 53" fill="none" xmlns="http://www.w3.org/2000/svg">
<path d="M0.591309 45.0791C1.1233 44.9626 1.77352 45.0791 2.36463 45.1956" stroke="#1D1D1B" stroke-width="2" stroke-miterlimit="10" stroke-linecap="round"/>
<path d="M5.6748 46.4769C8.51212 47.5252 11.2903 48.5736 14.1867 49.4472C22.8169 52.1846 32.3928 53.2329 41.3776 51.7187C47.466 50.6703 54.7957 47.5835 56.2735 41.1187C57.0419 37.8571 56.8646 34.945 55.6824 31.8C54.382 28.3055 53.1406 24.811 51.8402 21.3165C49.7713 15.7835 47.9389 11.2406 50.126 5.41646C51.6038 1.51426 55.5642 0.116458 59.5837 0.698876C73.7111 2.56261 83.4053 14.2692 94.1043 22.4231" stroke="#1D1D1B" stroke-width="2" stroke-miterlimit="10" stroke-linecap="round" stroke-dasharray="5.98 5.98"/>
<path d="M95.4639 23.4714C95.9368 23.8209 96.4096 24.1703 96.8825 24.4615" stroke="#1D1D1B" stroke-width="2" stroke-miterlimit="10" stroke-linecap="round"/>
<path d="M81.75 24.5781C82.3411 24.5198 82.9322 24.5198 83.5233 24.6363" stroke="#1D1D1B" stroke-width="2" stroke-miterlimit="10" stroke-linecap="round"/>
<path d="M86.8926 25.5099C87.0699 25.5682 87.2472 25.6264 87.4246 25.6847C89.9663 26.3836 92.449 27.3154 94.9907 27.9561C97.296 28.5385 99.7196 28.7132 102.084 29.0044C102.616 29.0627 103.089 29.4704 103.503 29.0627C104.626 28.0143 99.3649 21.1418 98.7738 20.0935C97.828 18.5209 97.1187 16.9484 96.3503 15.3176" stroke="#1D1D1B" stroke-width="2" stroke-miterlimit="10" stroke-linecap="round" stroke-dasharray="5.89 5.89"/>
<path d="M95.7003 13.6868C95.4639 13.1044 95.0501 12.5802 94.3999 12.6385" stroke="#1D1D1B" stroke-width="2" stroke-miterlimit="10" stroke-linecap="round"/>
</svg>
